<svg xmlns="http://www.w3.org/2000/svg" width="120" height="123" fill="none" viewBox="0 0 120 123"><path fill="url(#paint0_linear_16603_16808)" fill-opacity="0.1" fill-rule="evenodd" stroke="url(#paint1_linear_16603_16808)" stroke-linejoin="round" stroke-width="2" d="M67.8083 3.64866L106.329 25.8241C111.118 28.6351 114.137 33.7365 114.137 39.3584V83.8134C114.137 89.4353 111.118 94.5367 106.329 97.3477L67.8083 119.523C63.0192 122.334 56.9808 122.334 52.1918 119.523L13.671 97.3477C8.88198 94.5367 5.86279 89.4353 5.86279 83.8134V39.4625C5.86279 33.8406 8.88198 28.7392 13.671 25.9282L52.1918 3.75277C56.9808 0.941803 63.0192 0.941803 67.8083 3.64866Z" clip-rule="evenodd"/><path fill="#fff" d="M52 3.5L60.2083 11.9229L68 3.5C64.9955 3.02903 63.3427 2 60.2083 2C57.0739 2 55.0045 3.02903 52 3.5Z"/><path fill="url(#paint2_linear_16603_16808)" d="M59.9917 39C75.2723 39 82.146 53.4174 82.146 63.6562C82.4531 69.0852 79.514 74.1516 74.7485 76.4092C74.1885 76.652 73.7793 77.1658 73.6538 77.7822C72.7902 81.9874 69.2143 84.995 65.0728 85H54.9185C50.7762 84.9959 47.1992 81.9881 46.3354 77.7822C46.21 77.1658 45.8007 76.652 45.2407 76.4092C40.4731 74.1533 37.5322 69.0865 37.8384 63.6562C37.8384 53.4175 44.7112 39.0001 59.9917 39ZM69.6382 70.6865C66.5527 69.5182 63.2715 69.0082 59.9917 69.1875C56.7121 69.0083 53.4315 69.5182 50.3462 70.6865C50.0346 70.8495 49.838 71.1807 49.8384 71.543V75.8955C49.8424 78.8033 52.1108 81.1607 54.9116 81.167H65.0649C67.8686 81.1649 70.1419 78.8063 70.146 75.8955V71.543C70.1463 71.1807 69.9498 70.8495 69.6382 70.6865ZM51.6841 51.9102C48.1155 51.9102 45.2222 54.9143 45.2222 58.6191C45.2222 60.3981 45.9032 62.1043 47.1147 63.3623C48.3265 64.6203 49.9704 65.3271 51.6841 65.3271C55.2526 65.3271 58.1459 62.324 58.146 58.6191C58.146 54.9142 55.2527 51.9102 51.6841 51.9102ZM71.0688 58.6191C69.5395 58.6192 68.2993 59.9064 68.2993 61.4941C68.2995 63.0818 69.5396 64.3691 71.0688 64.3691C72.5982 64.3691 73.8382 63.0818 73.8384 61.4941C73.8384 59.9063 72.5983 58.6191 71.0688 58.6191ZM65.0688 43.3125C62.7747 43.3125 60.9146 45.2433 60.9146 47.625C60.9146 50.0067 62.7747 51.9375 65.0688 51.9375C67.3629 51.9375 69.2231 50.0067 69.2231 47.625C69.2231 45.2433 67.3629 43.3125 65.0688 43.3125Z"/><path fill="url(#paint3_linear_16603_16808)" d="M55.3761 71.5564C54.6114 71.5564 53.9915 72.2 53.9915 72.9939V76.8272C53.9915 77.6211 54.6114 78.2647 55.3761 78.2647C56.1408 78.2647 56.7607 77.6211 56.7607 76.8272V72.9939C56.7607 72.2 56.1408 71.5564 55.3761 71.5564Z"/><path fill="url(#paint4_linear_16603_16808)" d="M64.607 71.5564C63.8423 71.5564 63.2224 72.2 63.2224 72.9939V76.8272C63.2224 77.6211 63.8423 78.2647 64.607 78.2647C65.3717 78.2647 65.9916 77.6211 65.9916 76.8272V72.9939C65.9916 72.2 65.3717 71.5564 64.607 71.5564Z"/><defs><linearGradient id="paint0_linear_16603_16808" x1="60.0419" x2="60.0419" y1="94.0849" y2="17.1967" gradientUnits="userSpaceOnUse"><stop stop-color="#141d2b"/><stop offset="1" stop-color="#a4b1cd"/></linearGradient><linearGradient id="paint1_linear_16603_16808" x1="60.0419" x2="60.0419" y1="18.4817" y2="83.528" gradientUnits="userSpaceOnUse"><stop stop-color="#fff"/><stop offset="1" stop-color="#abb7ca"/></linearGradient><linearGradient id="paint2_linear_16603_16808" x1="83.3869" x2="33.882" y1="39" y2="44.1667" gradientUnits="userSpaceOnUse"><stop stop-color="#9fef00"/><stop offset="1" stop-color="#21ef00"/></linearGradient><linearGradient id="paint3_linear_16603_16808" x1="56.8368" x2="53.7184" y1="71.5564" y2="71.6957" gradientUnits="userSpaceOnUse"><stop stop-color="#9fef00"/><stop offset="1" stop-color="#21ef00"/></linearGradient><linearGradient id="paint4_linear_16603_16808" x1="66.0678" x2="62.9493" y1="71.5564" y2="71.6957" gradientUnits="userSpaceOnUse"><stop stop-color="#9fef00"/><stop offset="1" stop-color="#21ef00"/></linearGradient></defs></svg>