<svg xmlns="http://www.w3.org/2000/svg" width="120" height="123" fill="none" viewBox="0 0 120 123"><path fill="url(#paint0_linear_16603_16756)" fill-opacity="0.1" fill-rule="evenodd" stroke="url(#paint1_linear_16603_16756)" stroke-linejoin="round" stroke-width="2" d="M67.8083 3.64866L106.329 25.8241C111.118 28.6351 114.137 33.7365 114.137 39.3584V83.8134C114.137 89.4353 111.118 94.5367 106.329 97.3477L67.8083 119.523C63.0192 122.334 56.9808 122.334 52.1918 119.523L13.671 97.3477C8.88198 94.5367 5.86279 89.4353 5.86279 83.8134V39.4625C5.86279 33.8406 8.88198 28.7392 13.671 25.9282L52.1918 3.75277C56.9808 0.941803 63.0192 0.941803 67.8083 3.64866Z" clip-rule="evenodd"/><path fill="url(#paint2_linear_16603_16756)" d="M60 38C74.134 38 80 56.888 80 67C80 78.542 72.15 86 60 86C47.85 86 40 78.542 40 67C40 56.888 45.866 38 60 38ZM60 77C58.8955 77 58 77.8955 58 79C58 80.1045 58.8955 81 60 81C61.1046 81 62 80.1046 62 79C62 77.8954 61.1046 77 60 77ZM52 74C50.8955 74 50 74.8955 50 76C50 77.1045 50.8955 78 52 78C53.1046 78 54 77.1046 54 76C54 74.8954 53.1046 74 52 74ZM68 74C66.8955 74 66 74.8955 66 76C66 77.1045 66.8955 78 68 78C69.1046 78 70 77.1046 70 76C70 74.8954 69.1046 74 68 74ZM51 52C49.8955 52 49 52.8955 49 54V68C49 69.1045 49.8955 70 51 70H69C70.1046 70 71 69.1046 71 68V54C71 52.8954 70.1046 52 69 52H51Z"/><defs><linearGradient id="paint0_linear_16603_16756" x1="60.0419" x2="60.0419" y1="94.0849" y2="17.1967" gradientUnits="userSpaceOnUse"><stop stop-color="#141d2b"/><stop offset="1" stop-color="#a4b1cd"/></linearGradient><linearGradient id="paint1_linear_16603_16756" x1="60.0419" x2="60.0419" y1="18.4817" y2="83.528" gradientUnits="userSpaceOnUse"><stop stop-color="#fff"/><stop offset="1" stop-color="#abb7ca"/></linearGradient><linearGradient id="paint2_linear_16603_16756" x1="81.1" x2="36.33" y1="38" y2="42.0385" gradientUnits="userSpaceOnUse"><stop stop-color="#9fef00"/><stop offset="1" stop-color="#21ef00"/></linearGradient></defs></svg>